.
 
http://www.scenetime.com    -  Hottest private tracker on the net. !!!

New release on http://www.scenetime.com

        Seed back for speed


...................................NFO:.................................................[IMG]http://img607.imageshack.us/img607/7920/treasurebuddiesblurayco.jpg[/IMG]


[color=blue][size=4][b]Treasure.Buddies.2012.BDRip.XVID.AC3.HQ.Hive-CM8[/b][/size][/color]


[b] Thx Hive

CM8 Doing it right the first time :D

Source: Bluray

Video: 720x400 @bitrate 1700 2pass
Audio: English DTS to AC3 5.1 @448
Sample: yes included[/b]


[url]http://www.imdb.com/title/tt1791658/[/url]


General
Complete name                  : Treasure.Buddies.2012.BDRip.XVID.AC3.HQ.Hive-CM8.avi
Format                         : AVI
Format/Info                    : Audio Video Interleave
File size                      : 1.40 GiB
Duration                       : 1h 32mn
Overall bit rate               : 2 157 Kbps
Writing application            : Nandub v1.0rc2
Writing library                : Nandub build 1853/release

Video
ID                             : 0
Format                         : MPEG-4 Visual
Format profile                 : Advanced Simple@L5
Format settings, BVOP          : 2
Format settings, QPel          : Yes
Format settings, GMC           : No warppoints
Format settings, Matrix        : Default (H.263)
Muxing mode                    : Packed bitstream
Codec ID                       : XVID
Codec ID/Hint                  : XviD
Duration                       : 1h 32mn
Bit rate                       : 1 700 Kbps
Width                          : 720 pixels
Height                         : 400 pixels
Display aspect ratio           : 16:9
Frame rate                     : 23.976 fps
Color space                    : YUV
Chroma subsampling             : 4:2:0
Bit depth                      : 8 bits
Scan type                      : Progressive
Compression mode               : Lossy
Bits/(Pixel*Frame)             : 0.246
Stream size                    : 1.10 GiB (79%)
Writing library                : XviD 1.2.1 (UTC 2008-12-04)

Audio
ID                             : 1
Format                         : AC-3
Format/Info                    : Audio Coding 3
Mode extension                 : CM (complete main)
Codec ID                       : 2000
Duration                       : 1h 32mn
Bit rate mode                  : Constant
Bit rate                       : 448 Kbps
Channel(s)                     : 6 channels
Channel positions              : Front: L C R, Side: L R, LFE
Sampling rate                  : 48.0 KHz
Bit depth                      : 16 bits
Compression mode               : Lossy
Stream size                    : 298 MiB (21%)
Alignment                      : Split accross interleaves
Interleave, duration           : 42 ms (1.00 video frame)
Interleave, preload duration   : 500 ms



The Buddies are off on an all new adventure, and this time their journey takes them all the way 
to the ruins of ancient Egypt where, with the help of some new friends, including Digger the Archeologist dog, 
Cammy, a baby camel, and a mischievous monkey named Babi, they explore mysterious tombs, dodge treacherous 
booby traps, and race against a devious cat in search of the greatest treasure known to animalkind, 
the lost collar of Cleocatra.


Richard Riehle	... 	Thomas Howard
Edward Herrmann	... 	Philip Wellington
Mason Cook	... 	Pete Howard
Adam Alexi-Malle	... 	Amir Sabbagh


[img]http://img859.imageshack.us/img859/4208/40167527.png[/img]
[img]http://img11.imageshack.us/img11/1706/trtrv.png[/img]
[img]http://img15.imageshack.us/img15/566/trttrr.png[/img]
[img]http://img220.imageshack.us/img220/4447/trtttrrr.png[/img]
[img]http://img171.imageshack.us/img171/49/trtttrrtrr.png[/img]
[img]http://img252.imageshack.us/img252/1328/trtttrrtrtrr.png[/img]
[img]http://img820.imageshack.us/img820/9862/trtttrrtrttrrr.png[/img]
[img]http://img84.imageshack.us/img84/5374/trtttrrttrrttrrr.png[/img]
[img]http://img207.imageshack.us/img207/6630/trtttrrttrtrrttrrr.png[/img]




Greetz

ViSiON,SPK,SceneLovers,PRESTiGE,SANTi,3LT0N,YanKeeS,MAGNET,THC,T0XiC,LKRG,Feel-Free,FLAWL3SS,
WBZ,BHRG,SiC,26K,NOVA,D2U,SeToNeUp,TED,COPYxRIGHT,jtr,Rapeseed,SAFC,goldadvance,KaN1vE,Unevano,Pinnz,Wayne
Mr Hive,and most P2P groups
Great Work Guys :D


LOOKING FOR ANYTHING YOU WANT TO LOOK AND SOUND BETTER

CM8@hushmail.com